<?xml version="1.0" encoding="UTF-8" standalone="no"?>
<svg
   xmlns:dc="http://purl.org/dc/elements/1.1/"
   xmlns:cc="http://creativecommons.org/ns#"
   xmlns:rdf="http://www.w3.org/1999/02/22-rdf-syntax-ns#"
   xmlns:svg="http://www.w3.org/2000/svg"
   xmlns="http://www.w3.org/2000/svg"
   xmlns:sodipodi="http://sodipodi.sourceforge.net/DTD/sodipodi-0.dtd"
   xmlns:inkscape="http://www.inkscape.org/namespaces/inkscape"
   viewBox="269.4 383.3 80.21 27.38"
   id="svg2"
   version="1.1"
   inkscape:version="0.91 r13725"
   sodipodi:docname="ikealogo.svg">
  <metadata
     id="metadata16">
    <rdf:RDF>
      <cc:Work
         rdf:about="">
        <dc:format>image/svg+xml</dc:format>
        <dc:type
           rdf:resource="http://purl.org/dc/dcmitype/StillImage" />
        <dc:title></dc:title>
      </cc:Work>
    </rdf:RDF>
  </metadata>
  <defs
     id="defs14" />
  <sodipodi:namedview
     pagecolor="#ffffff"
     bordercolor="#666666"
     borderopacity="1"
     objecttolerance="10"
     gridtolerance="10"
     guidetolerance="10"
     inkscape:pageopacity="0"
     inkscape:pageshadow="2"
     inkscape:window-width="1920"
     inkscape:window-height="1017"
     id="namedview12"
     showgrid="false"
     inkscape:zoom="4.4383494"
     inkscape:cx="-63.762442"
     inkscape:cy="13.69"
     inkscape:window-x="1912"
     inkscape:window-y="-8"
     inkscape:window-maximized="1"
     inkscape:current-layer="svg2"
     inkscape:snap-bbox="false"
     inkscape:bbox-paths="false"
     inkscape:bbox-nodes="false"
     inkscape:snap-bbox-edge-midpoints="false"
     inkscape:snap-global="false" />
  <style
     id="style4">.b{fill:#0051BA;}</style>
  <path
     style="fill:#0051ba;fill-opacity:1"
     d="m 306.5852,446.39076 c -3.26161,-6.82766 -12.19239,-28.1188 -13.66291,-32.57263 -2.70238,-8.18479 -3.07133,-11.87773 -1.70148,-17.03055 1.77503,-6.67694 7.16132,-11.69562 14.01925,-13.06246 2.20958,-0.44038 6.00826,-0.43947 8.2286,0.002 7.2885,1.44913 12.80475,6.48347 14.61045,13.33411 1.80114,6.83331 0.76663,11.16289 -7.35444,30.77936 -5.49166,13.26515 -6.43622,15.39691 -8.81405,19.89231 -2.75409,5.20674 -2.12074,5.36635 -5.32542,-1.34213 z m 6.33611,-36.35305 c 1.5982,-0.75449 3.33388,-2.57836 4.00628,-4.20983 0.41273,-1.00143 0.51648,-1.68074 0.52285,-3.42337 0.007,-1.89287 -0.0673,-2.32871 -0.57364,-3.37024 -0.70602,-1.45217 -2.2259,-2.96249 -3.7187,-3.69533 -0.97247,-0.4774 -1.39485,-0.5435 -3.47287,-0.5435 -2.1359,0 -2.47791,0.0571 -3.52025,0.58765 -4.04355,2.05818 -5.66504,6.72162 -3.72395,10.71013 0.76196,1.56564 1.4874,2.4319 2.73545,3.26644 2.32222,1.55284 5.33338,1.81646 7.74483,0.67805 z"
     id="path3350"
     inkscape:connector-curvature="0" />
  <path
     d="M269.4 384h74.38v26.68H269.4z"
     class="b"
     id="path6" />
  <ellipse
     cx="306.59201"
     cy="395.24799"
     rx="36.59"
     ry="12.231"
     id="ellipse8"
     style="fill:#f9d616" />
  <path
     d="M346.7 387.04h-.4v-2.73h1.04c.64 0 .96.24.96.78 0 .5-.3.7-.7.76l.77 1.2h-.46l-.7-1.2h-.5v1.2zm.5-1.54c.35 0 .67-.02.67-.44 0-.34-.3-.4-.6-.4h-.56v.84h.5zm-2.4.17c0-1.36 1.1-2.37 2.4-2.37 1.3 0 2.4 1 2.4 2.37s-1.1 2.37-2.4 2.37c-1.3 0-2.4-1-2.4-2.37zm2.4 1.97c1.08 0 1.93-.83 1.93-1.97 0-1.13-.85-1.97-1.92-1.97-1.07 0-1.92.84-1.92 1.97 0 1.14.85 1.97 1.93 1.97zM328.66 401.95s.3-.34.2-.75l-.5-1.2h-2.9l-.48 1.2c-.1.4.2.75.2.75h-5.9s.33-.3.54-.76l3.13-8.26c.2-.52-.14-.82-.14-.82h9.4s-.33.3-.16.83l3.3 8.24c.28.52.64.75.64.75h-7.32zm-.96-3.73l-.73-1.8c-.1-.2-.1-.5-.1-.5s-.02.3-.1.5c-.04.06-.74 1.8-.74 1.8h1.67zM279.57 401.95c.38-.2.35-.82.35-.9v-8.32c0-.44-.3-.62-.3-.62h6.8s-.3.2-.3.63v8.3c0 .1-.02.73.36.92h-6.9zM295.6 396.02l2.27-3.17c.33-.48-.04-.74-.04-.74h6.68c0 .03-.3.2-.6.58l-2.5 3.44 3.14 5c.28.37.5.54.7.68.12.1.2.14.2.14h-7.8s.22-.13.02-.6l-2.07-3.43v3.14c0 .08-.1.72.28.9h-6.66c.38-.18.35-.82.35-.9v-8.3c0-.46-.3-.63-.3-.63h6.6s-.28.18-.28.63v3.3zM318.12 401.95v-3.46s-.42.43-1.03.43h-4.18v-.8h3.2c.18 0 .72.07.86.25v-3c-.14.2-.68.25-.86.25h-3.2v-.78h4.17c.6 0 1.02.44 1.02.44v-3.2h-11.3s.28.2.28.63v8.3c0 .1.03.73-.35.92h11.37z"
     class="b"
     id="path10" />
</svg>
