<?xml version="1.0" encoding="UTF-8" standalone="no"?>
<svg xmlns="http://www.w3.org/2000/svg" width="24px" height="24px" color="#009900" viewBox="0 0 113 113"><path fill-rule="nonzero" fill="currentColor" d="M 47.31,92.00 C 47.31,92.00 31.34,54.00 31.34,54.00 28.95,47.10 25.02,36.20 25.51,29.00 26.08,20.72 28.91,13.16 35.17,7.47 49.36,-5.45 74.31,-1.78 83.65,15.00 86.11,19.42 87.15,23.98 87.49,29.00 87.97,36.07 84.30,46.25 82.00,53.00 82.00,53.00 67.86,87.00 67.86,87.00 65.16,93.10 59.91,105.08 56.00,110.00 56.00,110.00 47.31,92.00 47.31,92.00 Z M 55.00,43.43 C 68.52,45.21 74.79,26.34 62.91,19.57 59.65,17.71 56.56,17.91 53.00,18.42 38.73,23.54 42.23,41.75 55.00,43.43 Z" /></svg>