<?xml version="1.0" encoding="utf-8"?>
<!-- Generator: Adobe Illustrator 21.1.0, SVG Export Plug-In . SVG Version: 6.00 Build 0)  -->
<svg version="1.1" id="Calque_1" xmlns="http://www.w3.org/2000/svg" xmlns:xlink="http://www.w3.org/1999/xlink" x="0px" y="0px"
	 viewBox="0 0 20 20" style="enable-background:new 0 0 20 20;" xml:space="preserve">
<style type="text/css">
	.st0{fill:#FFFFFF;}
	.st1{fill:#0093D7;}
	.st2{fill:#FF2E01;}
</style>
<g>
	<path class="st1" d="M10,1c4.9,0,9,4,9,9s-4,9-9,9s-9-4-9-9S5.1,1,10,1 M10,0C4.5,0,0,4.5,0,10s4.5,10,10,10s10-4.5,10-10
		S15.5,0,10,0L10,0z"/>
</g>
<g>
	<path class="st1" d="M15.5,8.7h-4.2V4.5c0-0.2-0.2-0.4-0.4-0.4H9.1c-0.2,0-0.4,0.2-0.4,0.4v4.2H4.5c-0.2,0-0.4,0.2-0.4,0.4v1.7
		c0,0.2,0.2,0.4,0.4,0.4h4.2v4.2c0,0.2,0.2,0.4,0.4,0.4h1.7c0.2,0,0.4-0.2,0.4-0.4v-4.2h4.2c0.2,0,0.4-0.2,0.4-0.4V9.1
		C15.9,8.9,15.7,8.7,15.5,8.7z"/>
</g>
</svg>
