<?xml version="1.0" encoding="utf-8"?>
<!-- Generator: Adobe Illustrator 21.1.0, SVG Export Plug-In . SVG Version: 6.00 Build 0)  -->
<svg version="1.1" id="Calque_1" xmlns="http://www.w3.org/2000/svg" xmlns:xlink="http://www.w3.org/1999/xlink" x="0px" y="0px"
	 viewBox="0 0 20 20" style="enable-background:new 0 0 20 20;" xml:space="preserve">
<style type="text/css">
	.st0{fill:#FFFFFF;}
	.st1{fill:#0093D7;}
	.st2{fill:#FF2E01;}
</style>
<g>
	<circle class="st2" cx="10" cy="10" r="10"/>
</g>
<g>
	<path class="st0" d="M14.8,13l-3-3l3-3c0.2-0.2,0.2-0.4,0-0.6l-1.2-1.2c-0.2-0.2-0.4-0.2-0.6,0l-3,3l-3-3c-0.2-0.2-0.4-0.2-0.6,0
		L5.2,6.5C5.1,6.6,5.1,6.9,5.2,7l3,3l-3,3c-0.2,0.2-0.2,0.4,0,0.6l1.2,1.2c0.2,0.2,0.4,0.2,0.6,0l3-3l3,3c0.2,0.2,0.4,0.2,0.6,0
		l1.2-1.2C14.9,13.4,14.9,13.1,14.8,13z"/>
</g>
</svg>
