<?xml version="1.0" encoding="utf-8"?>
<!-- Generator: Adobe Illustrator 21.1.0, SVG Export Plug-In . SVG Version: 6.00 Build 0)  -->
<svg version="1.1" id="Calque_1" xmlns="http://www.w3.org/2000/svg" xmlns:xlink="http://www.w3.org/1999/xlink" x="0px" y="0px"
	 viewBox="0 0 20 20" style="enable-background:new 0 0 20 20;" xml:space="preserve">
<style type="text/css">
	.st0{fill:#FFFFFF;}
	.st1{fill:#0093D7;}
	.st2{fill:#FF2E01;}
</style>
<g>
	<path class="st1" d="M10,1c4.9,0,9,4,9,9s-4,9-9,9s-9-4-9-9S5.1,1,10,1 M10,0C4.5,0,0,4.5,0,10s4.5,10,10,10s10-4.5,10-10
		S15.5,0,10,0L10,0z"/>
</g>
<g>
	<path class="st1" d="M10.9,16.4H9.1c-0.5,0-0.9-0.4-0.9-0.9v-3.7H4.5c-0.5,0-0.9-0.4-0.9-0.9V9.1c0-0.5,0.4-0.9,0.9-0.9h3.7V4.5
		c0-0.5,0.4-0.9,0.9-0.9h1.7c0.5,0,0.9,0.4,0.9,0.9v3.7h3.7c0.5,0,0.9,0.4,0.9,0.9v1.7c0,0.5-0.4,0.9-0.9,0.9h-3.7v3.7
		C11.8,16,11.4,16.4,10.9,16.4z M9.2,15.4h1.6v-4.6h4.6V9.2h-4.6V4.6H9.2v4.6H4.6v1.6h4.6V15.4z"/>
</g>
</svg>
