<?xml version="1.0" encoding="utf-8"?>
<!-- Generator: Adobe Illustrator 21.1.0, SVG Export Plug-In . SVG Version: 6.00 Build 0)  -->
<svg version="1.1" id="Calque_1" xmlns="http://www.w3.org/2000/svg" xmlns:xlink="http://www.w3.org/1999/xlink" x="0px" y="0px"
	 viewBox="0 0 170.5 46.8" style="enable-background:new 0 0 170.5 46.8;" xml:space="preserve">
<style type="text/css">
	.st0{fill:#FFFFFF;}
	.st1{fill:#0093D7;}
	.st2{fill:#FF2E01;}
</style>
<g>
	<g>
		<g>
			<path class="st0" d="M23.5,46.3C10.8,46.3,0.6,36,0.6,23.4S10.8,0.5,23.5,0.5h123.6c12.6,0,22.9,10.3,22.9,22.9
				s-10.3,22.9-22.9,22.9H23.5z"/>
		</g>
	</g>
	<g>
		<g>
			<g>
				<path class="st1" d="M147.1,1c12.4,0,22.4,10.1,22.4,22.4c0,12.4-10.1,22.4-22.4,22.4H23.5c-12.4,0-22.4-10.1-22.4-22.4
					C1.1,11.1,11.1,1,23.5,1H147.1 M147.1,0H23.5C10.5,0,0.1,10.5,0.1,23.4v0c0,12.9,10.5,23.4,23.4,23.4h123.6
					c12.9,0,23.4-10.5,23.4-23.4v0C170.5,10.5,160,0,147.1,0L147.1,0z"/>
			</g>
		</g>
	</g>
</g>
<g>
	<path class="st1" d="M149.7,22.6h-5.3v-5.3c0-0.3-0.2-0.5-0.5-0.5h-2.2c-0.3,0-0.5,0.2-0.5,0.5v5.3h-5.3c-0.3,0-0.5,0.2-0.5,0.5
		v2.2c0,0.3,0.2,0.5,0.5,0.5h5.3v5.3c0,0.3,0.2,0.5,0.5,0.5h2.2c0.3,0,0.5-0.2,0.5-0.5v-5.3h5.3c0.3,0,0.5-0.2,0.5-0.5v-2.2
		C150.2,22.8,150,22.6,149.7,22.6z"/>
</g>
<g>
	<g>
		<path class="st1" d="M48.3,16.9h8.6v2.5h-5.7V23h5.3v2.5h-5.3v5.8h-2.8V16.9z"/>
	</g>
	<g>
		<path class="st1" d="M66,28.2h-4.4l-1.1,3.2h-2.8l5.2-14.6h2.1l5.2,14.6h-3L66,28.2z M62.2,25.9h3.1l-1.1-3.2l-0.4-2.3h-0.1
			l-0.4,2.3L62.2,25.9z"/>
	</g>
	<g>
		<path class="st1" d="M74.7,25.4l0.4,2.5h0.1l0.4-2.5l2.8-8.5h3l-5.4,14.6h-2l-5.4-14.6h3.3L74.7,25.4z"/>
	</g>
	<g>
		<path class="st1" d="M81.1,24.1c0-2.4,0.5-4.3,1.6-5.6c1.1-1.3,2.6-2,4.5-2c1,0,1.9,0.2,2.7,0.5c0.8,0.4,1.4,0.9,1.9,1.5
			s0.9,1.5,1.1,2.4c0.2,0.9,0.4,1.9,0.4,3.1c0,2.4-0.5,4.3-1.6,5.6s-2.6,2-4.5,2c-1,0-2-0.2-2.7-0.5c-0.8-0.4-1.4-0.9-1.9-1.5
			c-0.5-0.7-0.9-1.5-1.1-2.4S81.1,25.3,81.1,24.1z M84.1,24.1c0,0.7,0.1,1.4,0.2,2c0.1,0.6,0.3,1.1,0.6,1.6c0.3,0.4,0.6,0.8,1,1
			c0.4,0.2,0.9,0.4,1.4,0.4c1,0,1.8-0.4,2.3-1.2c0.5-0.8,0.8-2.1,0.8-3.8c0-0.7-0.1-1.4-0.2-2c-0.1-0.6-0.3-1.1-0.5-1.6
			c-0.2-0.5-0.6-0.8-1-1.1c-0.4-0.3-0.9-0.4-1.5-0.4c-1,0-1.8,0.4-2.3,1.2S84.1,22.4,84.1,24.1z"/>
	</g>
	<g>
		<path class="st1" d="M95.4,17.1c0.3-0.1,0.7-0.1,1-0.2c0.4,0,0.7-0.1,1.1-0.1c0.4,0,0.7,0,1.1-0.1c0.3,0,0.7,0,0.9,0
			c0.7,0,1.3,0.1,2,0.2c0.7,0.1,1.2,0.3,1.8,0.6c0.5,0.3,0.9,0.7,1.2,1.2c0.3,0.5,0.5,1.2,0.5,2c0,1.2-0.3,2.1-0.8,2.9
			c-0.6,0.7-1.3,1.3-2.2,1.5l1,0.6l3.3,5.5H103l-3.3-5.7l-1.5-0.3v5.9h-2.8V17.1z M99.7,19.2c-0.3,0-0.6,0-0.9,0s-0.5,0-0.6,0.1v4.2
			h1.2c0.8,0,1.4-0.2,1.9-0.5c0.5-0.4,0.7-0.9,0.7-1.8c0-0.6-0.2-1.1-0.6-1.5C101.1,19.4,100.5,19.2,99.7,19.2z"/>
	</g>
	<g>
		<path class="st1" d="M108.1,16.9h2.8v14.5h-2.8V16.9z"/>
	</g>
	<g>
		<path class="st1" d="M120,27.5c0-0.4-0.2-0.8-0.5-1.1c-0.3-0.3-0.7-0.5-1.2-0.8c-0.5-0.2-1-0.5-1.6-0.7c-0.6-0.2-1.1-0.5-1.6-0.9
			s-0.9-0.8-1.2-1.3c-0.3-0.5-0.5-1.2-0.5-2c0-0.7,0.1-1.3,0.4-1.8c0.2-0.5,0.6-0.9,1-1.3c0.4-0.3,0.9-0.6,1.5-0.8
			c0.6-0.2,1.3-0.2,2-0.2c0.8,0,1.6,0.1,2.4,0.2s1.4,0.4,1.8,0.6l-0.9,2.4c-0.3-0.2-0.8-0.4-1.4-0.5s-1.3-0.2-2-0.2
			c-0.7,0-1.2,0.1-1.5,0.4c-0.4,0.3-0.5,0.6-0.5,1.1c0,0.4,0.2,0.8,0.5,1s0.7,0.5,1.2,0.8c0.5,0.2,1,0.5,1.6,0.7
			c0.6,0.2,1.1,0.5,1.6,0.9c0.5,0.4,0.9,0.8,1.2,1.3s0.5,1.2,0.5,1.9c0,0.8-0.1,1.4-0.4,2c-0.3,0.6-0.6,1-1.1,1.4
			c-0.5,0.4-1,0.6-1.7,0.8s-1.4,0.3-2.2,0.3c-1,0-1.9-0.1-2.7-0.3c-0.8-0.2-1.4-0.4-1.7-0.6l0.9-2.4c0.2,0.1,0.3,0.2,0.6,0.3
			c0.2,0.1,0.5,0.2,0.8,0.3c0.3,0.1,0.6,0.2,1,0.2c0.3,0.1,0.7,0.1,1,0.1c0.8,0,1.5-0.1,1.9-0.4C119.7,28.5,120,28.1,120,27.5z"/>
	</g>
</g>
</svg>
