<?xml version="1.0" encoding="UTF-8" standalone="no"?>
<svg xmlns:rdf="http://www.w3.org/1999/02/22-rdf-syntax-ns#" xmlns="http://www.w3.org/2000/svg" height="100%" width="100%" version="1.1" xmlns:cc="http://creativecommons.org/ns#" xmlns:dc="http://purl.org/dc/elements/1.1/" viewBox="0 0 64 64">
	<path fill-rule="nonzero" fill="#8ac60a" d="m57.615,31.447c0.95183-1.3562,1.5246-3.0071,1.5246-4.7844,0-4.6328-3.782-8.3728-8.4485-8.3728-1.4404,0-2.7881,0.35378-3.9674,0.98553-3.606-3.892-8.778-6.318-14.523-6.318-8.179,0.01685-15.187,4.9613-18.152,12.003-0.13477,0-0.26112-0.01685-0.39589-0.01685-7.5387,0-13.654,6.057-13.654,13.528,0,7.168,5.6352,13.023,12.761,13.486v0.042h41.081v-0.03369c5.6685-0.35331,10.158-5.0123,10.158-10.723,0-4.363-2.62-8.103-6.385-9.796"/>
	<text font-family="Arial" xml:space="preserve" font-size="40px" line-height="125%" y="48.545456" x="22.363636" fill="#000000">
		<tspan y="48.545456" x="22.363636">3</tspan>
	</text>
</svg>