<?xml version="1.0" encoding="UTF-8" standalone="no"?><svg xmlns="http://www.w3.org/2000/svg" height="100%" width="100%" version="1.1" viewBox="0 0 64 64"><path fill-rule="nonzero" fill="#ff5a00" d="m50.985,49.987c-2.0865-0.0098-3.7892-1.7125-3.7892-3.8187,0-2.0963,1.7027-3.799,3.7892-3.799,2.116,0,3.8187,1.7027,3.8285,3.799-0.0098,2.1062-1.7125,3.8088-3.8285,3.8187m-19.183-17.321h-20.176c-1.9782,0.01968-2.3916-1.3976-2.1948-2.8148l2.0767-14.95c0.28542-1.8011,0.89562-3.0018,3.2675-3.0116h34.614c2.3522,0.0098,2.9723,1.2106,3.2675,3.0116l2.0865,14.95c0.17716,1.4172-0.23621,2.8345-2.1948,2.8148h-20.746zm-18.66,17.321c-2.0865-0.0098-3.7892-1.7125-3.7892-3.8187,0-2.0963,1.7027-3.799,3.7892-3.799,2.116,0,3.8187,1.7027,3.8285,3.799-0.0098,2.1062-1.7125,3.8088-3.8285,3.8187m7.6275-44.791,11.033,0,11.604,0c2.2144,0,2.2144,3.3364,0,3.3463h-22.638c-2.2341-0.0098-2.2341-3.3463,0-3.3463m36.12,4.7543c-0.728-3.7203-3.11-5.2065-6.682-6.6828-3.494-1.4763-11.909-3.2084-18.129-3.2675-6.22,0.05905-14.635,1.7912-18.159,3.2675-3.553,1.4763-5.9245,2.9625-6.643,6.6828l-2.677,20.56v24.989h4.6061v4.4191c-0.01968,5.4426,7.913,5.4426,7.9228,0v-4.4191h29.919v4.4191c-0.0098,5.4426,7.9228,5.4426,7.913,0v-4.4191h4.6061v-24.989l-2.678-20.56z"/></svg>
