<?xml version="1.0" encoding="UTF-8" standalone="no"?>
<svg
  xmlns="http://www.w3.org/2000/svg"
   width="100%"
   height="100%">
   <g transform="matrix(1.25,0,0,-1.25,0,105)">
   <g transform="translate(7.3721,18.4209)"><path
             d="m 0,0 c 0,-6.32 5.124,-11.443 11.443,-11.443 6.32,0 11.444,5.123 11.444,11.443 0,6.319 -5.124,11.442 -11.444,11.442 C 5.124,11.442 0,6.319 0,0"
             style="fill:#2e66a8;fill-opacity:1;fill-rule:nonzero;stroke:none" /></g><g
           transform="translate(67.2158,28.4229)"><path
             d="m 0,0 c -0.162,-0.525 -0.725,-0.822 -1.25,-0.66 l -3.405,1.052 c -0.526,0.162 -0.822,0.724 -0.66,1.25 l 9.56,30.969 c 0.162,0.526 0.725,0.823 1.25,0.66 L 8.9,32.22 C 9.426,32.058 9.723,31.495 9.561,30.97 L 0,0 z"
             style="fill:#2e66a8;fill-opacity:1;fill-rule:nonzero;stroke:none" /></g><g
           transform="translate(45.0205,47.0068)"><path
             d="m 0,0 c -0.131,-0.534 -0.675,-0.864 -1.209,-0.734 l -4.302,1.052 c -0.534,0.13 -0.865,0.675 -0.734,1.209 l 1.173,4.796 c 0.131,0.534 0.675,0.865 1.209,0.735 L 0.439,6.005 C 0.973,5.874 1.304,5.33 1.173,4.796 L 0,0 z"
             style="fill:#2e66a8;fill-opacity:1;fill-rule:nonzero;stroke:none" /></g><g
           transform="translate(44.1064,23.3164)"><path
             d="M 0,0 -1.622,0.465 2.351,14.322 3.973,13.857 0,0 z"
             style="fill:#ffffff;fill-opacity:1;fill-rule:nonzero;stroke:none" /></g><g
           transform="translate(85.9961,13.1807)"><path
             d="m 0,0 c 1.626,-2.693 4.572,-4.5 7.948,-4.5 5.086,0 9.211,4.087 9.282,9.155 C 12.16,2.274 5.084,0.791 0,0"
             style="fill:#2e66a8;fill-opacity:1;fill-rule:nonzero;stroke:none" /></g><g
           transform="translate(92.7803,14.4707)"
           id="g3023"><path
             d="M 0,0 9.095,0 C 9.158,0.243 9.411,1.444 9.742,3.047 6.829,1.77 3.355,0.765 0,0"
             style="fill:#2e66a8;fill-opacity:1;fill-rule:nonzero;stroke:none" /></g><g
           transform="translate(73.8389,66.5518)"><path
             d="m 0,0 c 6.599,0 9.717,-1.894 9.594,-2.383 -0.122,-0.488 -0.122,-5.438 -3.3,-7.027 -3.177,-1.59 -28.11,-7.639 -30.738,-8.067 -2.628,-0.428 -4.034,-0.794 -4.034,-0.794 0,0 0.917,3.361 0.123,4.277 -0.795,0.917 -3.178,0.855 -4.034,0.305 -0.855,-0.549 -2.078,-2.748 -2.2,-3.421 -0.122,-0.673 -0.122,-1.529 -0.795,-1.161 -0.672,0.366 -3.849,6.905 -3.849,6.905 0,0 22.144,11.366 39.233,11.366 m -6.684,-38.516 c 2.505,7.706 3.214,9.976 4.018,13.474 2.79,0.378 4.303,0.519 6.193,0.945 0,0 -4.444,-13.946 -10.211,-14.419 m -5.437,1.844 c -1.323,0.048 -10.258,1.466 -11.534,1.561 -1.277,0.093 -5.197,-0.252 -5.433,-2.191 l -2.037,-5.562 c 1.536,4.625 2.474,9.562 3.734,13.898 3.215,0.709 17.776,3.167 20.707,3.357 0,0 -3.499,-10.582 -3.83,-10.705 -0.33,-0.122 -0.283,-0.406 -1.607,-0.358 m 18.444,-15.409 -0.001,0.008 c 4.631,0.771 16.344,2.581 22.958,5.948 0.801,3.92 1.627,8.023 1.627,8.023 l 0,39.416 c 0,0.642 -2.412,3.134 -2.412,3.134 l -9.129,0 c -34.032,0 -47.924,0.156 -87.779,-28.433 -0.478,-0.343 -0.367,-2.292 -0.55,-3.576 -0.275,-0.641 -0.551,-15.72 -0.367,-16.866 0.097,-0.6 0.348,-1.062 0.682,-1.499 1.06,6.572 6.757,11.612 13.625,11.612 7.619,0 13.818,-6.198 13.818,-13.817 0,-1.373 -0.208,-2.697 -0.583,-3.95 l 48.111,0 z"
             id="path3029"
             style="fill:#2e66a8;fill-opacity:1;fill-rule:nonzero;stroke:none" /></g></g>></svg>