<?xml version="1.0" encoding="UTF-8" standalone="no"?><svg xmlns="http://www.w3.org/2000/svg" version="1.1" viewBox="0 0 605 359" width="32px"><path fill="#000" d="m95,355.73c-1.375-0.61162-4.525-2.0157-7-3.1203-16.429-7.33-28.368-18.62-38.032-35.97l-4.533-8.14-18.703-0.27-18.703-0.27-1.4336-2.78c-6.5479-25.19-6.9186-56.16-1.848-73.69,14.989-44.65,53.819-74.83,99.303-77.18l11.545-0.59552,2.825-11.087c17.21-67.533,69.22-120.06,136.44-137.78l11.64-3.0693,37-0.034758c35.141-0.033011,37.477,0.07983,46.5,2.2461,26.158,6.2803,55.494,20.38,73.326,35.243,2.6544,2.2124,5.1649,3.6293,5.5789,3.1487,17.57-20.404,21.4-24.374,23.52-24.374,1.8733,0,2.5284,0.80569,3.4555,4.25,1.35,5.041,17.11,102.95,17.11,106.34,0,1.2872-0.86896,2.8022-1.9343,3.3723-1.27,0.68-20.78,1.04-56.43,1.04-48.207,0-54.676-0.18131-56.066-1.5714-1.8882-1.8882-2.0502-5.7816-0.31655-7.6071,0.69018-0.72679,3.9527-4.4714,7.25-8.3214s6.449-6.9926,6.7451-7.3333c2.1928-2.5237,0.17595-3.482-5.1951-7.1294-11.88-7.538-25.85-13.604-37.94-16.812-9.01-2.265-12.72-2.664-24.61-2.646-14.839,0.0222-21.108,0.95816-34,5.0767-28.363,9.0608-53.393,31.35-66.107,58.865-1.8664,4.0395-3.3934,7.599-3.3934,7.9101,0,0.31105,67.917,0.56554,150.93,0.56554,83.481-0.70104,201.92-17.605,242.66,63.5,2.9054,6.05,5.9863,13.765,6.8464,17.144,1.7658,6.9377,2.7496,8.085,2.3886,17.247,1.8966,10.699-0.64624,25.859-0.94949,33.677,0.12628,7.1545-1.8534,16.066-4.4835,20.182-1.4061,2.2004-1.8456,2.25-19.929,2.25h-18.492l-1.7353,2.9957c-0.95441,1.6476-3.3023,5.8101-5.2176,9.25-4.4314,7.959-19.567,23.302-27.568,27.946-3.3274,1.9313-8.9996,4.6915-12.605,6.1338-6.5472,2.6193-6.5858,2.6222-32.45,2.3899l-25.89-0.24-7.5-3.86c-14.51-7.46-25.86-17.19-33.38-28.62-1.9898-3.025-4.0057-5.9754-4.4798-6.5564-0.47408-0.581-1.3974-2.6787-2.0518-4.6616s-1.8799-3.87-2.7232-4.1936c-0.84-0.33-47.17-0.59-102.94-0.59h-101.41l-3.649,7.25c-8.4655,16.819-21.247,29.075-39.201,37.589l-7.6746,3.6393-26,0.1838c-17.3,0.1223-26.837-0.18828-28.5-0.92822zm47.607-36.672c21.2-10.505,31.506-31.849,25.855-53.546-5.831-22.387-29.395-38.635-51.5-35.51-3.3949,0.47987-9.3878,2.4126-13.317,4.2949-26.683,12.781-36.036,43.714-20.526,67.885,5.6025,8.7307,15.781,16.341,26.679,19.949,4.4142,1.4611,7.804,1.803,15.007,1.5135,8.5488-0.34359,9.9946-0.71595,17.803-4.5851zm-24.691-21.956c-8.2104-1.6893-13.006-6.761-14.946-15.807-1.9722-9.1958,2.4952-19.456,10.178-23.375,4.5462-2.3193,14.661-2.5977,18.651-0.51339,14.307,7.4742,15.036,30.879,1.1872,38.088-3.3467,1.7421-10.638,2.5201-15.07,1.6081zm377.23,24.93c28.517-8.8134,41.952-39.276,29.072-65.918-5.2728-8.318-13.684-17.391-21.966-21.825-14.615-6.3511-26.847-6.2674-40.083,0.27406-17.892,8.8429-29.905,29.948-27.069,47.556,2.7655,17.172,11.702,29.214,27.649,37.259,9.9493,5.0192,21.643,5.9768,32.399,2.6528zm-18.459-24.962c-4.7495-0.97183-8.3909-3.6245-11.902-8.6701-2.294-3.2966-3.7357-4.9624-3.7637-10.704-0.0359-7.3521,2.3926-11.244,6.8447-16.04,4.0066-4.3158,7.4163-5.6607,14.352-5.6607,7.7623,0,11.921,2.0328,16.176,7.9067,2.7261,3.7633,4.1586,5.0335,4.4735,11.967,0.31996,7.0455-0.93244,8.564-3.2465,12.513-4.0541,6.9178-13.709,10.575-22.934,8.6876z"/></svg>