<svg xmlns:rdf="http://www.w3.org/1999/02/22-rdf-syntax-ns#" xmlns="http://www.w3.org/2000/svg" xml:space="preserve" version="1.1" xmlns:cc="http://creativecommons.org/ns#" xmlns:dc="http://purl.org/dc/elements/1.1/" viewBox="0 0 135 105"><metadata><rdf:RDF><cc:Work rdf:about=""><dc:format>image/svg+xml</dc:format><dc:type rdf:resource="http://purl.org/dc/dcmitype/StillImage"/><dc:title/></cc:Work></rdf:RDF></metadata><defs><clipPath id="clipPath2999"><path d="M0,84,108,84,108,0,0,0,0,84z"/></clipPath></defs><g transform="matrix(1.25,0,0,-1.25,0,105)"><g clip-path="url(#clipPath2999)"><g transform="translate(30.9121,16.2832)"><path fill-rule="nonzero" fill="#2e66a8" d="M0,0c0,5.677-4.602,10.279-10.279,10.279-5.678,0-10.281-4.602-10.281-10.279,0-5.678,4.603-10.28,10.281-10.28,5.677,0,10.279,4.602,10.279,10.28"/></g><g transform="translate(67.6631,39.1035)"><path fill-rule="nonzero" fill="#2e66a8" d="m0,0c-0.706-2-2.913-7.176-11.94-7.176-2.254,0-7.058,0.38-7.47-0.545l-0.346-7.708-6.311-0.264c-0.201,28.223,3.273,33.13,13.419,40.472,5.692,1.962,12.064,3.335,18.764,3.335,0,0-5.411-26.114-6.116-28.114m37.291,4.105c0,1.198-0.798,2.299-1.571,2.299-0.775,0-7.92-0.111-8.979,0.085-1.058,0.197-2.627,0.745-3.411,5.411-0.672,3.996-4.109,15.028-5.618,18.246-0.079,0.169-0.309,0.512-0.406,0.61-0.282,0.281-0.547,0.297-0.94,0.297-0.795,0-7.982-0.018-10.877-0.018-24.464,0-53.112-20.899-60.482-28.212-3.191-3.166-8.379-8.95-8.433-13.469-0.053-4.458,0.257-10.234,1.492-11.763,0.946-1.17,1.715-1.679,2.21-1.858-0.052,0.476-0.087,0.956-0.087,1.447,0,7.057,5.722,12.779,12.781,12.779,7.057,0,12.779-5.722,12.779-12.779,0-0.52-0.04-1.03-0.101-1.534h41.964c-0.06,0.504-0.1,1.014-0.1,1.534,0,7.057,5.721,12.779,12.78,12.779,7.058,0,12.779-5.722,12.779-12.779,0-0.52-0.04-1.03-0.1-1.534h0.999c0.988,0.138,3.162,4.023,3.319,6.768,0.083,1.443,0.002,21.536,0.002,21.691"/></g><g transform="translate(98.2344,16.2832)"><path fill-rule="nonzero" fill="#2e66a8" d="M0,0c0,5.677-4.603,10.279-10.279,10.279-5.678,0-10.281-4.602-10.281-10.279,0-5.678,4.603-10.28,10.281-10.28,5.676,0,10.279,4.602,10.279,10.28"/></g></g></g></svg>
