<?xml version="1.0" encoding="UTF-8" standalone="no"?><svg xmlns="http://www.w3.org/2000/svg" version="1.1" viewBox="0 0 72 64" color="#8334a7"><g transform="matrix(2.5399292,0,0,-2.5399292,71.999373,35.673079)"><path fill-rule="nonzero" fill="currentcolor" d="m0,0,0,0c-0.006,1.979-1.253,3.594-2.906,4.635-1.083,0.683-2.375,1.17-3.796,1.432-0.557,1.433-1.686,2.635-3.081,3.512-2.01,1.271-4.653,2.003-7.553,2.006-2.899-0.004-5.542-0.735-7.554-2.006-1.993-1.256-3.449-3.17-3.457-5.478,0.008-2.306,1.465-4.219,3.458-5.475,0.316-0.2,0.657-0.383,1.005-0.557-0.996-1.496-2.497-2.61-4.246-3.103,0.338-0.076,0.686-0.132,1.041-0.163,2.352-0.207,4.546,0.683,6.083,2.243,1.153-0.274,2.384-0.424,3.67-0.426,0.155,0,0.307,0.004,0.46,0.01,0.436-0.483,0.954-0.908,1.52-1.264,1.669-1.055,3.845-1.653,6.225-1.655,0.618,0.001,1.222,0.042,1.806,0.122,1.536-1.534,3.711-2.405,6.043-2.2,0.352,0.031,0.699,0.087,1.036,0.165-1.642,0.463-3.069,1.478-4.062,2.843,0.497,0.209,0.968,0.451,1.402,0.725,1.653,1.041,2.9,2.658,2.906,4.634m-23.439,0.911c-1.504,0.962-2.21,2.112-2.202,3.19-0.008,1.08,0.698,2.23,2.2,3.192,1.485,0.948,3.669,1.589,6.105,1.586,2.434,0.003,4.621-0.637,6.103-1.585,0.509-0.325,0.921-0.674,1.252-1.03-2.047-0.13-3.906-0.701-5.378-1.63-1.652-1.04-2.897-2.655-2.905-4.635,0.003-0.219,0.021-0.434,0.049-0.645-2.079,0.13-3.922,0.725-5.224,1.557m19.084-3.259c-1.146-0.73-2.861-1.24-4.776-1.236-1.916-0.004-3.632,0.506-4.777,1.236-1.164,0.748-1.657,1.599-1.651,2.347-0.006,0.751,0.487,1.604,1.65,2.35,1.146,0.731,2.862,1.239,4.778,1.236,1.915,0.003,3.63-0.504,4.776-1.235,1.162-0.747,1.656-1.6,1.651-2.35,0.005-0.747-0.489-1.599-1.651-2.348"/></g></svg>