<svg xmlns:rdf="http://www.w3.org/1999/02/22-rdf-syntax-ns#" xmlns="http://www.w3.org/2000/svg" xml:space="preserve" version="1.1" xmlns:cc="http://creativecommons.org/ns#" xmlns:dc="http://purl.org/dc/elements/1.1/" viewBox="0 0 135 105"><metadata><rdf:RDF><cc:Work rdf:about=""><dc:format>image/svg+xml</dc:format><dc:type rdf:resource="http://purl.org/dc/dcmitype/StillImage"/><dc:title/></cc:Work></rdf:RDF></metadata><defs><clipPath id="clipPath16" clipPathUnits="userSpaceOnUse"><path d="M0,84,108,84,108,0,0,0,0,84z"/></clipPath></defs><g transform="matrix(1.25,0,0,-1.25,0,105)"><g clip-path="url(#clipPath16)"><g transform="translate(94.79,15.583)"><path fill-rule="nonzero" fill="#2e66a8" d="m0,0c0-5.844-4.736-10.58-10.58-10.58s-10.58,4.736-10.58,10.58,4.736,10.581,10.58,10.581,10.58-4.737,10.58-10.581"/></g><g transform="translate(32.041,15.583)"><path fill-rule="nonzero" fill="#2e66a8" d="m0,0c0-5.844-4.739-10.58-10.581-10.58-5.844,0-10.58,4.736-10.58,10.58s4.736,10.581,10.58,10.581c5.842,0,10.581-4.737,10.581-10.581"/></g><g transform="translate(97.4961,51.4941)"><path fill-rule="nonzero" fill="#2e66a8" d="m0,0c-0.572-0.709-1.445-1.649-2.246-1.932-1.337-0.471-11.82-2.74-13.225-2.74,0,2.07-0.099,14.801-0.099,14.801,0,1.748,1.494,1.739,1.494,1.739s3.295,0.138,5.997,0.138c4.542,0,7.31-0.546,7.667-2.167,0,0,0.69-1.873,0.848-3.831,0.173-2.167,0.051-4.503-0.037-4.831-0.167-0.625-0.175-0.9-0.399-1.177m-27.42-6.71c-3.391-0.439-16.87-2.091-23.732-2.53-1.113-0.07-2.594,2.021-2.594,2.631,0,1.966-0.552,5.354-0.096,6.14,0.146,0.252,1.014,1.702,2.529,3.369,2.233,2.012,4.584,3.59,7.033,4.914,0.476,0.171,0.964,0.328,1.472,0.449,6.931,1.647,15.359,2.557,16.243,2.557,0.847,0,2.435-0.3,2.987-1.162,0.761-1.186,0.615-2.666,0.615-3.309,0-2.018,0.074-7.411,0.074-8.746,0-1.126-2.09-3.996-4.531-4.313m31.359,21.501c-5.394,6.706-7.523,5.559-12.693,5.585-3.751-0.297-8.464-0.712-11.843-1.159-3.979-0.526-11.455-1.458-15.858-3.816-1.424-1.024-1.139-0.999-1.237-1.483-20.294-5.308-40.529-18.682-46.378-24.485-3.191-3.166-8.379-8.95-8.433-13.47-0.053-4.457,0.257-10.233,1.492-11.763,0.946-1.17,1.715-1.679,2.21-1.857-0.053,0.475-0.087,0.956-0.087,1.446,0,7.058,5.722,12.779,12.781,12.779,7.057,0,12.779-5.721,12.779-12.779,0-0.508-0.039-1.005-0.098-1.497-0.039-0.159-0.077-0.317-0.106-0.475l37.846-0.008c-0.14,0.739-0.219,1.5-0.219,2.28,0,6.971,5.649,12.619,12.62,12.619,6.97,0,12.619-5.648,12.619-12.619,0-1.416-0.243-2.775-0.675-4.046,0.604,0,1.169,0.001,1.679,0.001,3.92,1.219,4.201,5.134,4.349,7.719,0.059,1.021-0.034,7.131-0.039,14.454-0.011,0.525-0.019,1.07-0.019,1.663,0,0.661,0.012,2.749,0.012,3.311,0,5.749,1.16,6.297,1.558,7.791,0.17,0.34,0.343,1.083,0.324,1.475,0,0,0.378,3.292,0,7.893-0.457,5.562-1.675,9.312-2.584,10.441"/></g></g></g></svg>
