<?xml version="1.0" encoding="UTF-8" standalone="no"?><svg xmlns="http://www.w3.org/2000/svg" height="100%" width="100%" version="1.1" color="#009fd6" viewBox="0 0 72 64"><path fill-rule="nonzero" fill="currentColor" d="m65.169,49.149,0-35.911c0-6.2708-4.9539-11.356-11.062-11.356h-2.5589v-0.055298c-0.000147-1.0088-0.79715-1.8267-1.7801-1.8267h-24.733c-0.98288,0-1.779,0.81793-1.779,1.8267v0.055892h-4.3935c-6.1085,0-11.062,5.0848-11.062,11.355v35.911c0,6.2721,4.9539,11.356,11.062,11.356h3.6071v1.3987c0.002,1.158,0.917,2.096,2.045,2.096h0.1036c1.1287,0,2.0448-0.93789,2.0448-2.098v-1.3973h21.217v1.3987c0,1.158,0.914,2.096,2.045,2.096h0.1036c1.1287,0,2.0421-0.93789,2.0421-2.0966v-1.3987h2.0366c6.1085,0,11.062-5.0834,11.062-11.356m-5.293-17.253c0,13.246-10.461,23.984-23.364,23.984-12.904,0-23.365-10.739-23.365-23.984,0-13.246,10.461-23.984,23.365-23.984,12.903,0,23.364,10.738,23.364,23.984m-20.725,0c0-1.4968-1.1819-2.7087-2.6392-2.7087-1.4586,0-2.6392,1.2119-2.6392,2.7087s1.1805,2.7087,2.6392,2.7087c1.4573,0,2.6392-1.2119,2.6392-2.7087m-2.639-4.407c0.6966,0,1.3537,0.17585,1.9358,0.47985v-12.764c0-1.186-1.0074-1.8949-1.9644-1.8949-0.95697,0-1.9644,0.70887-1.9644,1.8949v12.791c0.59572-0.32172,1.2732-0.50711,1.993-0.50711m-0.6857,8.7532c-1.2978-0.21675-2.402-1.0279-3.0345-2.1552l-5.5823,7.5917c-0.66252,0.97061-0.33126,2.0734,0.45259,2.6378,0.78385,0.56437,1.9071,0.50575,2.5697-0.46485l5.5946-7.6094z"/></svg>
