<?xml version="1.0" encoding="UTF-8" standalone="no"?><svg xmlns="http://www.w3.org/2000/svg" height="100%" width="100%" version="1.1" viewBox="0 0 64 64" ><g><g transform="matrix(3.5772001,0,0,-3.9405119,54.032151,36.729142)" ><path d="M 0,0 0,0.1 C 0.046,0.089 0.093,0.083 0.143,0.083 c 0.279,0 0.507,0.164 0.507,0.367 0,0.204 -0.228,0.368 -0.507,0.368 -0.278,0 -0.504,-0.164 -0.504,-0.368 0,-0.003 0.001,-0.006 0.001,-0.011 0,-0.003 -0.001,-0.007 -0.001,-0.009 V 0.174 c -0.017,0.006 -0.034,0.011 -0.052,0.016 -0.293,2.762 -2.575,4.913 -5.35,4.913 -2.748,0 -5.014,-2.113 -5.341,-4.839 V 0.43 0.439 0.45 c 0,0.204 -0.226,0.368 -0.506,0.368 -0.279,0 -0.505,-0.164 -0.505,-0.368 0,-0.199 0.218,-0.359 0.488,-0.366 -0.383,-0.201 -0.783,-0.619 -0.782,-1.259 V -4.44 h 1.044 v -1.042 c -0.002,-1.285 1.958,-1.27 1.957,0 v 1.042 h 3.528 3.519 v -1.042 c 0.005,-1.27 1.964,-1.285 1.966,0 V -4.44 H 0.65 v 3.265 C 0.646,-0.613 0.337,-0.221 0,0 m -10.355,-2.47 c -0.501,-10e-4 -0.906,0.385 -0.905,0.862 -10e-4,0.48 0.404,0.867 0.905,0.863 0.499,0.004 0.904,-0.383 0.904,-0.863 0,-0.477 -0.406,-0.863 -0.904,-0.862 m 0.416,2.686 c 0.165,2.291 1.898,3.856 4.176,3.856 2.279,0 4.012,-1.565 4.177,-3.856 h -8.353 z m 8.534,-2.686 c -0.502,-10e-4 -0.909,0.385 -0.912,0.862 0.003,0.48 0.41,0.867 0.912,0.863 0.496,0.004 0.901,-0.383 0.905,-0.863 -0.004,-0.477 -0.409,-0.863 -0.905,-0.862" style="fill:#ff020c;fill-rule:nonzero" /></g></g></svg>