<svg style="text-anchor:middle;" xmlns="http://www.w3.org/2000/svg" font-family="Arial" font-weight="bold" height="100%" width="100%" version="1.1" stroke-width="6px" font-size="60px" viewBox="0 0 64 64"><g transform="matrix(3.1445716,0,0,-3.6819972,54.083605,40.399661)"><path fill-rule="nonzero" fill="#8ac60a" d="m0,0c0.266,0.377,0.423,0.835,0.423,1.329,0,1.284-1.05,2.324-2.346,2.324-0.398,0-0.772-0.099-1.101-0.273-1.001,1.078-2.435,1.753-4.029,1.751-2.27-0.003-4.215-1.377-5.04-3.33-0.036,0-0.072,0.005-0.109,0.005-2.092,0-3.79-1.681-3.79-3.756,0-1.991,1.565-3.615,3.541-3.743v-0.011h11.403v0.009c1.574,0.098,2.821,1.392,2.821,2.975,0,1.212-0.728,2.251-1.773,2.72"/></g><text font-size="34.12761688px" transform="scale(1.0730654,0.93190964)" class="svgNumLigne" y="60.402336" x="31.613201" fill="#ffffff">3</text></svg>