<?xml version="1.0" encoding="UTF-8" standalone="no"?><svg xmlns="http://www.w3.org/2000/svg" width="64px" height="64px" ><g transform="matrix(3.547827,0,0,-3.5983245,54.930956,39.561617)" ><path d="M 0,0 -1.217,0.493 C -0.891,1.554 -0.91,2.652 -1.22,3.658 L 0,4.154 C 0.287,4.27 0.424,4.593 0.305,4.875 0.185,5.156 -0.144,5.29 -0.432,5.173 L -1.651,4.678 c -0.508,0.926 -1.286,1.716 -2.283,2.24 L -3.43,8.11 C -3.31,8.392 -3.447,8.715 -3.734,8.831 -4.022,8.948 -4.352,8.814 -4.471,8.533 L -4.975,7.341 c -0.524,0.155 -1.065,0.234 -1.614,0.234 -0.559,0 -1.103,-0.081 -1.62,-0.233 l -0.503,1.19 C -8.831,8.814 -9.16,8.947 -9.448,8.831 -9.735,8.714 -9.872,8.391 -9.753,8.11 l 0.504,-1.192 c -0.956,-0.503 -1.754,-1.274 -2.282,-2.24 l -1.221,0.495 c -0.288,0.116 -0.617,-0.017 -0.736,-0.299 -0.119,-0.281 0.018,-0.604 0.305,-0.721 l 1.217,-0.493 c -0.32,-1.036 -0.32,-2.13 0,-3.167 l -1.217,-0.494 c -0.287,-0.116 -0.424,-0.44 -0.305,-0.721 0.09,-0.212 0.3,-0.34 0.521,-0.34 0.072,0 0.145,0.013 0.216,0.042 l 1.216,0.494 c 0.522,-0.955 1.311,-1.729 2.287,-2.24 l -0.505,-1.192 c -0.119,-0.281 0.018,-0.604 0.305,-0.721 0.071,-0.028 0.144,-0.042 0.216,-0.042 0.22,0 0.43,0.128 0.52,0.341 l 0.505,1.192 c 0.524,-0.155 1.065,-0.234 1.614,-0.234 0.559,0 1.103,0.081 1.619,0.232 l 0.503,-1.189 c 0.09,-0.213 0.299,-0.341 0.52,-0.341 0.072,0 0.145,0.013 0.216,0.042 0.287,0.117 0.424,0.439 0.305,0.721 l -0.504,1.191 c 0.956,0.503 1.754,1.274 2.283,2.241 l 1.22,-0.495 c 0.07,-0.028 0.144,-0.042 0.215,-0.042 0.222,0 0.431,0.129 0.521,0.341 C 0.424,-0.439 0.287,-0.117 0,0" style="fill:#ffcc00;fill-rule:nonzero" /></g></svg>