<svg xmlns="http://www.w3.org/2000/svg" height="100%" width="100%" version="1.1" viewBox="0 0 64 64"><g fill-rule="nonzero" transform="matrix(0.35034336,0,0,-0.33437885,-128.30043,263.33776)" fill="#90054a"><path d="m548.21,658.56-47.558,47.558c-0.66888,0.66888-1.6764,0.86362-2.557,0.50801-0.88055-0.36407-1.4394-1.2192-1.4394-2.1675v-19.465h-57.752c-2.5739,0-4.6822-2.0998-4.6822-4.6822v-46.813c0-2.5739,2.1082-4.6822,4.6822-4.6822h57.752v-19.474c0-0.94829,0.55881-1.795,1.4394-2.159,0.28788-0.11853,0.60115-0.1778,0.89749-0.1778,0.60961,0,1.2023,0.23707,1.6595,0.68581l47.558,47.567c0.90595,0.90595,0.90595,2.3792,0,3.3021"/><path d="m367.47,725.9,47.558-47.558c0.66888-0.66888,1.668-0.86362,2.5485-0.49954,0.88055,0.3556,1.4478,1.2023,1.4478,2.159v19.465h57.744c2.5739,0,4.6822,2.0998,4.6822,4.6737v46.822c0,2.5739-2.1082,4.6822-4.6822,4.6822h-57.744v19.474c0,0.93982-0.56728,1.795-1.4478,2.159-0.28787,0.11853-0.59268,0.1778-0.88902,0.1778-0.61808,0-1.2108-0.23707-1.6595-0.68581l-47.56-47.55c-0.91442-0.91442-0.91442-2.3961,0-3.3105"/></g></svg>