<svg xmlns:rdf="http://www.w3.org/1999/02/22-rdf-syntax-ns#" xmlns="http://www.w3.org/2000/svg" xml:space="preserve" version="1.1" xmlns:cc="http://creativecommons.org/ns#" xmlns:dc="http://purl.org/dc/elements/1.1/" viewBox="0 0 135 105"><metadata><rdf:RDF><cc:Work rdf:about=""><dc:format>image/svg+xml</dc:format><dc:type rdf:resource="http://purl.org/dc/dcmitype/StillImage"/><dc:title/></cc:Work></rdf:RDF></metadata><defs><clipPath id="clipPath2999"><path d="M0,84,108,84,108,0,0,0,0,84z"/></clipPath></defs><g transform="matrix(1.25,0,0,-1.25,0,105)"><g clip-path="url(#clipPath2999)"><g transform="translate(7.3721,18.4209)"><path fill-rule="nonzero" fill="#878a8b" d="m0,0c0-6.32,5.124-11.443,11.443-11.443,6.32,0,11.444,5.123,11.444,11.443,0,6.319-5.124,11.442-11.444,11.442-6.319,0-11.443-5.123-11.443-11.442"/></g><g transform="translate(67.2158,28.4229)"><path fill-rule="nonzero" fill="#878a8b" d="m0,0c-0.162-0.525-0.725-0.822-1.25-0.66l-3.405,1.052c-0.526,0.162-0.822,0.724-0.66,1.25l9.56,30.969c0.162,0.526,0.725,0.823,1.25,0.66l3.405-1.051c0.526-0.162,0.823-0.725,0.661-1.25l-9.561-30.97z"/></g><g transform="translate(45.0205,47.0068)"><path fill-rule="nonzero" fill="#878a8b" d="m0,0c-0.131-0.534-0.675-0.864-1.209-0.734l-4.302,1.052c-0.534,0.13-0.865,0.675-0.734,1.209l1.173,4.796c0.131,0.534,0.675,0.865,1.209,0.735l4.302-1.053c0.534-0.131,0.865-0.675,0.734-1.209l-1.173-4.796z"/></g><g transform="translate(44.1064,23.3164)"><path fill-rule="nonzero" fill="#FFF" d="M0,0-1.622,0.465,2.351,14.322,3.973,13.857,0,0z"/></g><g transform="translate(85.9961,13.1807)"><path fill-rule="nonzero" fill="#878a8b" d="m0,0c1.626-2.693,4.572-4.5,7.948-4.5,5.086,0,9.211,4.087,9.282,9.155-5.07-2.381-12.146-3.864-17.23-4.655"/></g><g transform="translate(92.7803,14.4707)"><path fill-rule="nonzero" fill="#878a8b" d="M0,0,9.095,0c0.063,0.243,0.316,1.444,0.647,3.047-2.913-1.277-6.387-2.282-9.742-3.047"/></g><g transform="translate(73.8389,66.5518)"><path fill-rule="nonzero" fill="#878a8b" d="m0,0c6.599,0,9.717-1.894,9.594-2.383-0.122-0.488-0.122-5.438-3.3-7.027-3.177-1.59-28.11-7.639-30.738-8.067s-4.034-0.794-4.034-0.794,0.917,3.361,0.123,4.277c-0.795,0.917-3.178,0.855-4.034,0.305-0.855-0.549-2.078-2.748-2.2-3.421s-0.122-1.529-0.795-1.161c-0.672,0.366-3.849,6.905-3.849,6.905s22.144,11.366,39.233,11.366m-6.684-38.516c2.505,7.706,3.214,9.976,4.018,13.474,2.79,0.378,4.303,0.519,6.193,0.945,0,0-4.444-13.946-10.211-14.419m-5.437,1.844c-1.323,0.048-10.258,1.466-11.534,1.561-1.277,0.093-5.197-0.252-5.433-2.191l-2.037-5.562c1.536,4.625,2.474,9.562,3.734,13.898,3.215,0.709,17.776,3.167,20.707,3.357,0,0-3.499-10.582-3.83-10.705-0.33-0.122-0.283-0.406-1.607-0.358m18.444-15.409-0.001,0.008c4.631,0.771,16.344,2.581,22.958,5.948,0.801,3.92,1.627,8.023,1.627,8.023v39.416c0,0.642-2.412,3.134-2.412,3.134h-9.129c-34.032,0-47.924,0.156-87.779-28.433-0.478-0.343-0.367-2.292-0.55-3.576-0.275-0.641-0.551-15.72-0.367-16.866,0.097-0.6,0.348-1.062,0.682-1.499,1.06,6.572,6.757,11.612,13.625,11.612,7.619,0,13.818-6.198,13.818-13.817,0-1.373-0.208-2.697-0.583-3.95h48.111z"/></g></g></g></svg>

