<?xml version="1.0" encoding="utf-8"?>
<svg version="1.1" xmlns="http://www.w3.org/2000/svg" xmlns:xlink="http://www.w3.org/1999/xlink" x="0px" y="0px" width="100%" height="100%" viewBox="0 0 219.252 167.777" enable-background="new 0 0 219.252 167.777" xml:space="preserve">
<path fill="#ffffff" d="M208.362,121.283l-16.226-21.093l-25.96-28.124c0,0,9.194-19.47-14.062-24.338L104.947,3.773
	c0,0-6.289-3.773-10.702-3.773c-3.639,0-65.577,0.135-65.577,0.135c-6.581,1.177-48,6.49-17.712,76.258l23.797,30.287l4.326,23.797
	l2.704,11.358c0,0,12.98,36.777,47.594,10.817l5.949,0.541c0,0,14.603,32.45,34.073,0.54l43.809-2.163
	C173.208,151.57,246.221,202.95,208.362,121.283z M38.268,80.45c-14.873-4.597-26.23-18.389-26.23-18.389
	s18.93,11.357,28.124,13.521c9.194,2.163,27.582,20.822,27.582,20.822S53.141,85.047,38.268,80.45z M104.522,120.02
	c-21.994-18.029-20.192-0.723-20.192-0.723c-1.442,7.8,7.213,31.369,7.213,31.369c-12.888-17.674-12.98-31.728-12.98-31.728
	c1.805-40.381,25.96,0,25.96,0V120.02z M98.388,82.886c-9.735-0.359-69.948-20.552-69.948-20.552S12.935,57.648,7.526,38.178
	c-5.408-19.47,0-15.144,0-15.144s35.698-0.72,49.037,15.144l48.314,42.906C104.878,81.084,108.123,83.245,98.388,82.886z
	 M154.819,72.608c0,0-2.705,2.163-14.062,10.276s-21.633,0-21.633,0L68.825,36.912c-7.821-7.147-3.786-11.357-3.786-11.357
	S78.561,15.279,89.377,9.33c10.817-5.949,17.848,2.704,17.848,2.704s30.828,32.991,44.89,44.89
	C166.177,68.822,154.819,72.608,154.819,72.608z M191.056,120.202c0.723-8.51-5.151-19.719-6.355-21.769
	c-0.359-0.495,3.376,3.878,2.975,3.38c0,0,1.302,1.83,1.894,2.839c5.712,7.83,5.813,15.549,5.813,15.549H191.056z"/>
</svg>
