<?xml version="1.0" encoding="UTF-8" standalone="no"?><svg xmlns="http://www.w3.org/2000/svg" height="100%" width="100%" version="1.1" viewBox="0 0 418 418"><path fill="#4b007d" d="m384.4,276.35-173.54-69.27,5.13,11.86,136.09,110.58c4.16-4.81,8.12-9.87,11.85-15.2,8.46-12.08,15.23-24.84,20.47-37.97"/><polygon points="" fill="#4b007d" transform="translate(-75.24,-73.3)"/><path fill="#FF0" d="m379.61,136.44c-4.67-11.15-10.42-21.73-17.11-31.63l-151.47,102.15-0.2,0.07,86.29-161.23c-25.68-13.75-55.02-21.56-86.19-21.56-14,0-27.62,1.58-40.72,4.56l40.6,178.15,0.03-0.01-0.02,0.04,0.02,0.07-0.05,0.01h0.1l0.11-0.04,168.61-70.58z"/><path fill="#ff4100" d="M211.03,206.96,362.5,104.81,374.46,96.74c-17.94-26.54-42.16-48.48-70.54-63.68l-6.82,12.74-86.28,161.23,0.21-0.07z"/><path fill="#67c6dd" d="m53.94,326.59,8.17-6.22,148.48-113.09,0.13-0.19,0.01-0.01-189.2,55.82c6.88,23.18,17.94,44.74,32.41,63.69"/><polygon points="" fill="#67c6dd" transform="translate(-75.24,-73.3)"/><path fill="#019ebc" d="M210.8,206.98,210.79,206.95,170.19,28.8,163.95,1.44c-93.87,21.35-163.95,105.32-163.95,205.66,0,20.71,3,40.72,8.56,59.62l12.96-3.82,189.2-55.81,0.04-0.01,0.05-0.01-0.01-0.09z"/><path fill="#f0037f" d="m400.33,127.76-20.73,8.68-168.63,70.59-0.11,0.05-0.01,0v0.01l173.54,69.27,19.31,7.71c8.83-22.98,13.68-47.93,13.68-74.03,0.01-29.26-6.08-57.07-17.05-82.28"/><path fill="#99cf16" d="m210.72,207.09-0.13,0.19-148.48,113.09c6.64,8.71,14.11,16.92,22.41,24.5l126.28-137.81-0.08,0.03z"/><polygon points="" fill="#99cf16" transform="translate(-75.24,-73.3)"/><path fill="#5bb224" d="m211.09,214.96-0.26-7.77-0.01-0.14v-0.02l-0.03,0.03-126.27,137.81-7.63,8.33c35.27,32.37,82.28,52.14,133.92,52.17v-190.64l0.28,0.23z"/><path fill="#0e0962" d="m211.09,214.96-0.28-0.23v203.27h0.1c63.9,0,121.16-28.43,159.84-73.32l-18.68-15.18-136.08-110.56-4.9-3.98z"/><path d="M250.63,346.55c-77.01,21.94-157.22-22.71-179.17-99.72-21.94-77.01,22.71-157.24,99.72-179.18,77.03-21.94,157.24,22.71,179.19,99.73,21.93,77.01-22.7,157.22-99.74,179.17"/><path fill="#FFF" d="m190.9,257.32-23.61-93.9v101.74c0,5.63-1.27,9.86-3.78,12.66-2.51,2.82-5.84,4.23-10,4.23-4.03,0-7.31-1.4-9.86-4.17-2.54-2.77-3.81-7.02-3.81-12.72v-116.63c0-6.43,1.67-10.77,5.02-13.02s7.87-3.36,13.58-3.36h9.25c5.56,0,9.6,0.51,12.11,1.51,2.51,1.01,4.38,2.82,5.58,5.43,1.2,2.62,2.58,6.87,4.12,12.77l21.41,80.72,21.41-80.72c1.54-5.91,2.92-10.16,4.13-12.77,1.2-2.61,3.06-4.42,5.57-5.43,2.52-1,6.56-1.51,12.13-1.51h9.25c5.69,0,10.22,1.12,13.56,3.36,3.35,2.25,5.03,6.59,5.03,13.02v116.63c0,5.63-1.25,9.85-3.76,12.66-2.51,2.82-5.88,4.23-10.1,4.23-3.96,0-7.21-1.41-9.76-4.23-2.55-2.81-3.81-7.03-3.81-12.66v-101.74l-23.63,93.9c-1.55,6.1-2.8,10.57-3.78,13.42-0.97,2.86-2.76,5.45-5.37,7.79-2.62,2.35-6.24,3.52-10.86,3.52-3.49,0-6.43-0.76-8.85-2.26-2.41-1.51-4.29-3.43-5.63-5.78-1.34-2.34-2.4-4.95-3.16-7.79-0.79-2.85-1.56-5.81-2.38-8.9"/></svg>