<?xml version="1.0" encoding="UTF-8" standalone="no"?>
<svg
   xmlns:dc="http://purl.org/dc/elements/1.1/"
   xmlns:cc="http://creativecommons.org/ns#"
   xmlns:rdf="http://www.w3.org/1999/02/22-rdf-syntax-ns#"
   xmlns:svg="http://www.w3.org/2000/svg"
   xmlns="http://www.w3.org/2000/svg"
   xmlns:sodipodi="http://sodipodi.sourceforge.net/DTD/sodipodi-0.dtd"
   xmlns:inkscape="http://www.inkscape.org/namespaces/inkscape"
   height="100%"
   width="100%"
   version="1.1"
   viewBox="0 0 418 418"
   id="svg2"
   inkscape:version="0.48.4 r"
   sodipodi:docname="metromobilite_font_noir.svg"
   inkscape:export-filename="\\192.168.247.167\MetromobiliteAppMobile\config\wp8\res\wp\background.png"
   inkscape:export-xdpi="13.301685"
   inkscape:export-ydpi="13.301685">
  <metadata
     id="metadata36">
    <rdf:RDF>
      <cc:Work
         rdf:about="">
        <dc:format>image/svg+xml</dc:format>
        <dc:type
           rdf:resource="http://purl.org/dc/dcmitype/StillImage" />
        <dc:title></dc:title>
      </cc:Work>
    </rdf:RDF>
  </metadata>
  <defs
     id="defs34" />
  <sodipodi:namedview
     pagecolor="#ffffff"
     bordercolor="#666666"
     borderopacity="1"
     objecttolerance="10"
     gridtolerance="10"
     guidetolerance="10"
     inkscape:pageopacity="0"
     inkscape:pageshadow="2"
     inkscape:window-width="1920"
     inkscape:window-height="1018"
     id="namedview32"
     showgrid="false"
     inkscape:zoom="1.8150792"
     inkscape:cx="138.47966"
     inkscape:cy="209"
     inkscape:window-x="1912"
     inkscape:window-y="-8"
     inkscape:window-maximized="1"
     inkscape:current-layer="layer1" />
  <g
     inkscape:groupmode="layer"
     id="layer1"
     inkscape:label="fond"
     style="display:inline">
    <rect
       style="fill:#000000;fill-opacity:1"
       id="rect3022"
       width="419.81638"
       height="419.26544"
       x="0"
       y="-0.16356035"
       inkscape:export-xdpi="37.136379"
       inkscape:export-ydpi="37.136379"
       inkscape:export-filename="\\192.168.247.167\MetromobiliteAppMobile\config\wp8\res\wp\Background.png" />
  </g>
  <g
     inkscape:groupmode="layer"
     id="layer2"
     inkscape:label="logo"
     style="display:inline">
    <path
       d="m 310.48126,245.59241 -100.34554,-40.0538 2.96632,6.85778 78.69093,63.94036 c 2.4054,-2.78128 4.69521,-5.7071 6.85198,-8.78907 4.89181,-6.98498 8.8064,-14.36314 11.83631,-21.95527"
       id="path4"
       inkscape:connector-curvature="0"
       style="fill:#4b007d"
       inkscape:export-filename="\\192.168.247.167\MetromobiliteAppMobile\config\wp8\res\wp\Background.png"
       inkscape:export-xdpi="64.641655"
       inkscape:export-ydpi="64.641655" />
    <polygon
       points=""
       transform="matrix(0.57822719,0,0,0.57822719,44.704925,43.415273)"
       id="polygon6"
       style="fill:#4b007d"
       inkscape:export-filename="\\192.168.247.167\MetromobiliteAppMobile\config\wp8\res\wp\Background.png"
       inkscape:export-xdpi="64.641655"
       inkscape:export-ydpi="64.641655" />
    <path
       d="m 307.71155,164.69265 c -2.70031,-6.44725 -6.02514,-12.56489 -9.89345,-18.28934 l -87.58408,59.06593 -0.11565,0.0405 49.89523,-93.22757 c -14.84887,-7.95064 -31.81407,-12.466573 -49.8374,-12.466573 -8.09517,0 -15.97064,0.913603 -23.5454,2.636713 l 23.47602,103.01117 0.0174,-0.005 -0.0114,0.0231 0.0114,0.0405 -0.0289,0.005 h 0.0578 l 0.0636,-0.0232 97.49488,-40.81128 z"
       id="path8"
       inkscape:connector-curvature="0"
       style="fill:#ffff00"
       inkscape:export-filename="\\192.168.247.167\MetromobiliteAppMobile\config\wp8\res\wp\Background.png"
       inkscape:export-xdpi="64.641655"
       inkscape:export-ydpi="64.641655" />
    <path
       d="m 210.23402,205.46924 87.58408,-59.06593 6.91558,-4.66629 c -10.37338,-15.34614 -24.37804,-28.03245 -40.78813,-36.8215 l -3.94353,7.36661 -49.88944,93.22757 0.12138,-0.0405 z"
       id="path10"
       inkscape:connector-curvature="0"
       style="fill:#ff4100"
       inkscape:export-filename="\\192.168.247.167\MetromobiliteAppMobile\config\wp8\res\wp\Background.png"
       inkscape:export-xdpi="64.641655"
       inkscape:export-ydpi="64.641655" />
    <path
       d="m 119.40032,274.64253 4.7241,-3.59656 85.85517,-65.39171 0.0751,-0.10993 0.005,-0.005 -109.40057,32.27664 c 3.97821,13.40331 10.3734,25.86989 18.74034,36.82731"
       id="path12"
       inkscape:connector-curvature="0"
       style="fill:#67c6dd"
       inkscape:export-filename="\\192.168.247.167\MetromobiliteAppMobile\config\wp8\res\wp\Background.png"
       inkscape:export-xdpi="64.641655"
       inkscape:export-ydpi="64.641655" />
    <polygon
       points=""
       transform="matrix(0.57822719,0,0,0.57822719,44.704925,43.415273)"
       id="polygon14"
       style="fill:#67c6dd"
       inkscape:export-filename="\\192.168.247.167\MetromobiliteAppMobile\config\wp8\res\wp\Background.png"
       inkscape:export-xdpi="64.641655"
       inkscape:export-ydpi="64.641655" />
    <path
       d="m 210.10104,205.4808 -0.005,-0.0174 -23.47612,-103.01112 -3.60814,-15.82031 c -54.27814,12.345171 -94.80032,60.89889 -94.80032,118.91822 0,11.9751 1.73469,23.5454 4.949635,34.4739 l 7.493825,-2.20884 109.40058,-32.27084 0.0231,-0.005 0.029,-0.005 -0.005,-0.0521 z"
       id="path16"
       inkscape:connector-curvature="0"
       style="fill:#019ebc"
       inkscape:export-filename="\\192.168.247.167\MetromobiliteAppMobile\config\wp8\res\wp\Background.png"
       inkscape:export-xdpi="64.641655"
       inkscape:export-ydpi="64.641655" />
    <path
       d="m 319.69241,159.67362 -11.98664,5.01903 -97.50645,40.81705 -0.0636,0.0289 -0.005,0 v 0.005 l 100.34555,40.0538 11.16556,4.45813 c 5.10574,-13.28766 7.91015,-27.71444 7.91015,-42.80617 0.005,-16.91892 -3.51562,-32.9994 -9.85878,-47.57651"
       id="path18"
       inkscape:connector-curvature="0"
       style="fill:#f0037f"
       inkscape:export-filename="\\192.168.247.167\MetromobiliteAppMobile\config\wp8\res\wp\Background.png"
       inkscape:export-xdpi="64.641655"
       inkscape:export-ydpi="64.641655" />
    <path
       d="m 210.05477,205.54441 -0.0751,0.10992 -85.85518,65.3917 c 3.83943,5.03638 8.15879,9.78362 12.95808,14.16657 l 73.01851,-79.68549 -0.0463,0.0174 z"
       id="path20"
       inkscape:connector-curvature="0"
       style="fill:#99cf16"
       inkscape:export-filename="\\192.168.247.167\MetromobiliteAppMobile\config\wp8\res\wp\Background.png"
       inkscape:export-xdpi="64.641655"
       inkscape:export-ydpi="64.641655" />
    <polygon
       points=""
       transform="matrix(0.57822719,0,0,0.57822719,44.704925,43.415273)"
       id="polygon22"
       style="fill:#99cf16"
       inkscape:export-filename="\\192.168.247.167\MetromobiliteAppMobile\config\wp8\res\wp\Background.png"
       inkscape:export-xdpi="64.641655"
       inkscape:export-ydpi="64.641655" />
    <path
       d="m 210.26871,210.09505 -0.15033,-4.49282 -0.005,-0.0808 V 205.51 l -0.0174,0.0174 -73.01274,79.68548 -4.41187,4.81665 c 20.39458,18.71717 47.57705,30.14872 77.4367,30.16608 v -110.2336 l 0.16189,0.13297 z"
       id="path24"
       inkscape:connector-curvature="0"
       style="fill:#5bb224"
       inkscape:export-filename="\\192.168.247.167\MetromobiliteAppMobile\config\wp8\res\wp\Background.png"
       inkscape:export-xdpi="64.641655"
       inkscape:export-ydpi="64.641655" />
    <path
       d="m 210.26871,210.09505 -0.16189,-0.13297 v 117.53623 h 0.0578 c 36.94873,0 70.05802,-16.43899 92.42384,-42.39559 l -10.80128,-8.77751 -78.68516,-63.92879 -2.83332,-2.30134 z"
       id="path26"
       inkscape:connector-curvature="0"
       style="fill:#0e0962"
       inkscape:export-filename="\\192.168.247.167\MetromobiliteAppMobile\config\wp8\res\wp\Background.png"
       inkscape:export-xdpi="64.641655"
       inkscape:export-ydpi="64.641655" />
    <path
       d="m 233.1318,286.18395 c -44.52925,12.68632 -90.90886,-13.13153 -103.60094,-57.6608 -12.6863,-44.52928 13.13152,-90.92046 57.66081,-103.60674 44.54083,-12.68632 90.92044,13.13152 103.61251,57.66659 12.68054,44.52928 -13.12574,90.90887 -57.67238,103.60095"
       id="path28"
       inkscape:connector-curvature="0"
       inkscape:export-filename="\\192.168.247.167\MetromobiliteAppMobile\config\wp8\res\wp\Background.png"
       inkscape:export-xdpi="64.641655"
       inkscape:export-ydpi="64.641655" />
    <path
       d="m 198.59431,234.58874 -13.65195,-54.29552 v 58.82881 c 0,3.25543 -0.73434,5.70132 -2.18568,7.32037 -1.45136,1.6306 -3.37686,2.4459 -5.78228,2.4459 -2.33026,0 -4.22685,-0.80952 -5.70132,-2.41121 -1.4687,-1.60168 -2.20305,-4.05916 -2.20305,-7.35506 v -67.43862 c 0,-3.718 0.96565,-6.22751 2.90269,-7.52852 1.93706,-1.30102 4.55066,-1.94284 7.85234,-1.94284 h 5.3486 c 3.21495,0 5.55098,0.2949 7.00233,0.87312 1.45135,0.58401 2.53264,1.6306 3.2265,3.13979 0.69389,1.51493 1.49184,3.9724 2.3823,7.38395 l 12.37985,46.67449 12.37983,-46.67449 c 0.89048,-3.41733 1.68843,-5.87479 2.38808,-7.38395 0.69387,-1.50919 1.76938,-2.55578 3.22072,-3.13979 1.45714,-0.57822 3.79318,-0.87312 7.0139,-0.87312 h 5.34861 c 3.29012,0 5.90947,0.64762 7.84076,1.94284 1.93706,1.30101 2.90848,3.81052 2.90848,7.52852 v 67.43862 c 0,3.25543 -0.72279,5.69555 -2.17415,7.32037 -1.45134,1.6306 -3.39995,2.4459 -5.84008,2.4459 -2.28978,0 -4.16902,-0.8153 -5.64349,-2.4459 -1.47449,-1.62482 -2.20305,-4.06494 -2.20305,-7.32037 v -58.82881 l -13.66352,54.29552 c -0.89625,3.52719 -1.61903,6.11188 -2.18569,7.75982 -0.56089,1.65372 -1.59591,3.15133 -3.10507,4.50437 -1.51496,1.35885 -3.60815,2.03537 -6.27956,2.03537 -2.01801,0 -3.718,-0.43945 -5.1173,-1.30679 -1.39355,-0.87314 -2.48061,-1.98332 -3.25542,-3.34216 -0.77483,-1.35305 -1.38775,-2.86222 -1.8272,-4.50439 -0.4568,-1.64794 -0.90203,-3.35951 -1.37618,-5.14622"
       id="path30"
       inkscape:connector-curvature="0"
       style="fill:#ffffff"
       inkscape:export-filename="\\192.168.247.167\MetromobiliteAppMobile\config\wp8\res\wp\Background.png"
       inkscape:export-xdpi="64.641655"
       inkscape:export-ydpi="64.641655" />
  </g>
</svg>
