<?xml version="1.0" encoding="UTF-8" standalone="no"?><svg xmlns:svg="http://www.w3.org/2000/svg" xmlns="http://www.w3.org/2000/svg" xmlns:inkscape="http://www.inkscape.org/namespaces/inkscape" id="icon-passages" color="#fff" height="100%" width="100%" version="1.1" viewBox="0 0 72 64"><g transform="matrix(2.4523798,0,0,-2.4523798,57.869614,35.214001)"><path d="m 1.6310687,0 c 0,6.482 -5.2549999,11.738 -11.7380007,11.738 -6.482,0 -11.737,-5.256 -11.737,-11.738 0,-6.483 5.255,-11.738 11.737,-11.738 6.4830008,0 11.7380007,5.255 11.7380007,11.738 m -2.31799994,0 c 0,-5.202 -4.21699996,-9.42 -9.42000076,-9.42 -5.202,0 -9.419,4.218 -9.419,9.42 0,5.202 4.217,9.419 9.419,9.419 5.2030008,0 9.42000076,-4.217 9.42000076,-9.419" inkscape:connector-curvature="0" style="fill:currentcolor;fill-rule:nonzero" /></g><g transform="matrix(2.4523798,0,0,-2.4523798,63.639819,20.23462)"><path d="M 1.6310687,0 C 0.08506872,3.728 -2.8979312,6.704 -6.6239312,8.251 L -12.458932,-5.836 1.6310687,0 z" inkscape:connector-curvature="0" style="fill:currentcolor;fill-rule:nonzero" /></g></svg>