<!-- Created with Inkscape (http://www.inkscape.org/) -->
<svg xmlns:rdf="http://www.w3.org/1999/02/22-rdf-syntax-ns#" xmlns="http://www.w3.org/2000/svg" version="1.1" xmlns:cc="http://creativecommons.org/ns#" xmlns:xlink="http://www.w3.org/1999/xlink" viewBox="0 0 744.09 1052.4" xmlns:dc="http://purl.org/dc/elements/1.1/">
<defs>
<linearGradient id="linearGradient4507" y2="130.94" gradientUnits="userSpaceOnUse" y1="130.94" gradientTransform="matrix(12.462077,0,0,17.797989,-1919.5568,-1787.3945)" x2="229.73" x1="132.75">
<stop stop-color="#F6F6F6" offset="0"/>
<stop stop-color="#EFEFEF" offset="0.2286"/>
<stop stop-color="#DDDCDC" offset="0.6082"/>
<stop stop-color="#C6C6C6" offset="0.9547"/>
</linearGradient>
</defs>
<metadata>
<rdf:RDF>
<cc:Work rdf:about="">
<dc:format>image/svg+xml</dc:format>
<dc:type rdf:resource="http://purl.org/dc/dcmitype/StillImage"/>
<dc:title/>
</cc:Work>
</rdf:RDF>
</metadata>
<path d="M893.13,827.13h-1109.1c-27.417,0-49.848-32.036-49.848-71.192v-427.15c0-39.156,22.432-71.192,49.848-71.192h1109.1c27.417,0,49.848,32.036,49.848,71.192v427.15c0,39.156-22.432,71.192-49.848,71.192z" stroke="#706f6f" stroke-miterlimit="10" stroke-width="14.8929472" fill="url(#linearGradient4507)"/>
<g fill="#1d3e8c" transform="matrix(12.257141,0,0,17.801781,-1872.4226,-1787.8912)">
<rect height="8.2" width="12" y="119.3" x="144.8"/>
<polygon points="159.2,127.4,150.7,135.9,142.3,127.4"/>
<polygon points="161.5,139.5,140,139.5,140,134.6,136.9,134.6,136.9,142.6,164.6,142.6,164.6,134.6,161.5,134.6"/>
</g>
<g fill="#3c3c3b" transform="matrix(12.257141,0,0,17.801781,-1872.4226,-1787.8912)">
<path d="m169.8,122.8h-1.6c-0.3,0-0.6-0.3-0.6-0.6s0.2-0.6,0.6-0.6h4.5c0.3,0,0.5,0.3,0.5,0.6s-0.2,0.6-0.5,0.6h-1.7v5.1c0,0.3-0.3,0.6-0.6,0.6s-0.6-0.3-0.6-0.6v-5.1z"/>
<path d="m175.5,128.6c-1.5,0-2.6-1.1-2.6-2.6s1-2.7,2.5-2.7c1.6,0,2.4,1.3,2.4,2.5,0,0.3-0.3,0.6-0.6,0.6h-3.2c0.1,0.8,0.7,1.3,1.5,1.3,0.5,0,0.9-0.2,1.2-0.4,0.1-0.1,0.2-0.1,0.3-0.1,0.3,0,0.5,0.2,0.5,0.5,0,0.1-0.1,0.3-0.2,0.4-0.5,0.2-1,0.5-1.8,0.5zm1.1-3c-0.1-0.8-0.5-1.3-1.3-1.3-0.7,0-1.2,0.6-1.3,1.3h2.6zm-1.6-3c0-0.1,0-0.2,0.1-0.2l0.5-0.8c0.1-0.2,0.3-0.3,0.5-0.3,0.3,0,0.7,0.2,0.7,0.4,0,0.1-0.1,0.2-0.2,0.3l-0.6,0.6c-0.2,0.2-0.4,0.3-0.7,0.3-0.2-0.1-0.3-0.2-0.3-0.3z"/>
<path d="m179,122c0-0.3,0.3-0.6,0.6-0.6s0.6,0.3,0.6,0.6v6c0,0.3-0.3,0.6-0.6,0.6s-0.6-0.3-0.6-0.6v-6z"/>
<path d="m184.1,128.6c-1.5,0-2.6-1.1-2.6-2.6s1-2.7,2.5-2.7c1.6,0,2.4,1.3,2.4,2.5,0,0.3-0.3,0.6-0.6,0.6h-3.2c0.1,0.8,0.7,1.3,1.5,1.3,0.5,0,0.9-0.2,1.2-0.4,0.1-0.1,0.2-0.1,0.3-0.1,0.3,0,0.5,0.2,0.5,0.5,0,0.1-0.1,0.3-0.2,0.4-0.5,0.2-1.1,0.5-1.8,0.5zm1.1-3c-0.1-0.8-0.5-1.3-1.3-1.3-0.7,0-1.2,0.6-1.3,1.3h2.6zm-1.6-3c0-0.1,0-0.2,0.1-0.2l0.5-0.8c0.1-0.2,0.3-0.3,0.5-0.3,0.3,0,0.7,0.2,0.7,0.4,0,0.1-0.1,0.2-0.2,0.3l-0.6,0.6c-0.2,0.2-0.4,0.3-0.7,0.3-0.2-0.1-0.3-0.2-0.3-0.3z"/>
<path d="m187.3,126,0,0c0-1.5,1.1-2.7,2.7-2.7,0.8,0,1.4,0.3,1.8,0.6,0.1,0.1,0.2,0.2,0.2,0.4,0,0.3-0.2,0.5-0.5,0.5-0.1,0-0.3-0.1-0.3-0.1-0.3-0.3-0.6-0.4-1.1-0.4-0.8,0-1.5,0.7-1.5,1.6s0.6,1.6,1.5,1.6c0.5,0,0.8-0.2,1.1-0.5,0.1-0.1,0.2-0.1,0.3-0.1,0.3,0,0.5,0.2,0.5,0.5,0,0.2-0.1,0.3-0.2,0.4-0.5,0.4-1,0.7-1.9,0.7-1.5,0.1-2.6-1.1-2.6-2.5z"/>
<path d="m193.1,122c0-0.3,0.3-0.6,0.6-0.6s0.6,0.3,0.6,0.6v2.2c0.3-0.5,0.8-0.9,1.6-0.9,1.1,0,1.8,0.8,1.8,2v2.7c0,0.3-0.3,0.6-0.6,0.6s-0.6-0.3-0.6-0.6v-2.4c0-0.8-0.4-1.2-1.1-1.2s-1.1,0.5-1.1,1.3v2.3c0,0.3-0.3,0.6-0.6,0.6s-0.6-0.3-0.6-0.6v-6z"/>
<path d="m198.7,127,0,0c0-1.1,0.9-1.7,2.1-1.7,0.6,0,1,0.1,1.4,0.2v-0.1c0-0.7-0.4-1.1-1.3-1.1-0.4,0-0.8,0.1-1.1,0.2h-0.2c-0.3,0-0.5-0.2-0.5-0.5,0-0.2,0.1-0.4,0.3-0.5,0.5-0.2,1-0.3,1.6-0.3,0.8,0,1.3,0.2,1.7,0.6s0.5,0.9,0.5,1.6v2.5c0,0.3-0.3,0.6-0.6,0.6s-0.6-0.2-0.6-0.5v-0.2c-0.3,0.4-0.9,0.7-1.7,0.7-0.7,0.1-1.6-0.5-1.6-1.5zm3.5-0.4v-0.3c-0.3-0.1-0.7-0.2-1.2-0.2-0.8,0-1.2,0.3-1.2,0.9,0,0.5,0.4,0.8,1,0.8,0.8-0.1,1.4-0.5,1.4-1.2z"/>
<path d="m204.7,123.9c0-0.3,0.3-0.6,0.6-0.6s0.6,0.3,0.6,0.6v0.5c0.3-0.6,0.8-1.1,1.3-1.1,0.4,0,0.6,0.2,0.6,0.6,0,0.3-0.2,0.5-0.5,0.6-0.8,0.1-1.4,0.8-1.4,2v1.5c0,0.3-0.3,0.6-0.6,0.6s-0.6-0.3-0.6-0.6v-4.1z"/>
<path d="m208.9,129.6c-0.2-0.1-0.3-0.2-0.3-0.5s0.2-0.5,0.5-0.5h0.2c0.5,0.3,1,0.4,1.6,0.4,1,0,1.6-0.5,1.6-1.6v-0.4c-0.4,0.6-1,0.9-1.8,0.9-1.2,0-2.3-0.9-2.3-2.4s1.1-2.4,2.3-2.4c0.9,0,1.4,0.4,1.8,0.9v-0.2c0-0.3,0.3-0.6,0.6-0.6s0.6,0.3,0.6,0.6v3.5c0,0.9-0.2,1.5-0.6,1.9-0.5,0.5-1.2,0.7-2.1,0.7-0.9,0.1-1.5,0-2.1-0.3zm3.5-3.9c0-0.8-0.7-1.4-1.5-1.4s-1.4,0.6-1.4,1.4,0.6,1.4,1.4,1.4,1.5-0.6,1.5-1.4z"/>
<path d="m217.4,128.6c-1.5,0-2.6-1.1-2.6-2.6s1-2.7,2.5-2.7c1.6,0,2.4,1.3,2.4,2.5,0,0.3-0.3,0.6-0.6,0.6h-3.2c0.1,0.8,0.7,1.3,1.5,1.3,0.5,0,0.9-0.2,1.2-0.4,0.1-0.1,0.2-0.1,0.3-0.1,0.3,0,0.5,0.2,0.5,0.5,0,0.1-0.1,0.3-0.2,0.4-0.4,0.2-1,0.5-1.8,0.5zm1.1-3c-0.1-0.8-0.5-1.3-1.3-1.3-0.7,0-1.2,0.6-1.3,1.3h2.6z"/>
<path d="m220.9,123.9c0-0.3,0.3-0.6,0.6-0.6s0.6,0.3,0.6,0.6v0.5c0.3-0.6,0.8-1.1,1.3-1.1,0.4,0,0.6,0.2,0.6,0.6,0,0.3-0.2,0.5-0.5,0.6-0.8,0.1-1.4,0.8-1.4,2v1.5c0,0.3-0.3,0.6-0.6,0.6s-0.6-0.3-0.6-0.6v-4.1z"/>
<path d="m168,133.6c0-0.3,0.3-0.6,0.6-0.6s0.6,0.3,0.6,0.6v6c0,0.3-0.3,0.6-0.6,0.6s-0.6-0.3-0.6-0.6v-6z"/>
<path d="m173.1,140.2c-1.5,0-2.6-1.1-2.6-2.6s1-2.7,2.5-2.7c1.6,0,2.4,1.3,2.4,2.5,0,0.3-0.3,0.6-0.6,0.6h-3.2c0.1,0.8,0.7,1.3,1.5,1.3,0.5,0,0.9-0.2,1.2-0.4,0.1-0.1,0.2-0.1,0.3-0.1,0.3,0,0.5,0.2,0.5,0.5,0,0.1-0.1,0.3-0.2,0.4-0.5,0.2-1,0.5-1.8,0.5zm1.1-3c-0.1-0.8-0.5-1.3-1.3-1.3-0.7,0-1.2,0.6-1.3,1.3h2.6z"/>
<path d="m176.4,139.6c-0.1-0.1-0.2-0.2-0.2-0.4,0-0.3,0.2-0.5,0.5-0.5,0.1,0,0.2,0,0.3,0.1,0.5,0.3,1,0.5,1.5,0.5s0.8-0.2,0.8-0.6-0.5-0.5-1.1-0.7c-0.8-0.2-1.6-0.5-1.6-1.5s0.8-1.6,1.8-1.6c0.5,0,1.1,0.2,1.6,0.4,0.2,0.1,0.3,0.2,0.3,0.4,0,0.3-0.2,0.5-0.5,0.5-0.1,0-0.2,0-0.2-0.1-0.4-0.2-0.8-0.3-1.2-0.3-0.5,0-0.7,0.2-0.7,0.5,0,0.4,0.6,0.5,1.1,0.7,0.7,0.2,1.6,0.6,1.6,1.5,0,1.1-0.8,1.6-1.9,1.6-0.8,0.1-1.5-0.1-2.1-0.5z"/>
<path d="m189.3,139.5c0,0.3-0.3,0.6-0.6,0.6s-0.6-0.3-0.6-0.6v-0.3c-0.4,0.5-0.9,1-1.7,1-1.2,0-2.4-1-2.4-2.6,0-1.7,1.1-2.6,2.4-2.6,0.8,0,1.4,0.4,1.7,0.9v-2.2c0-0.3,0.3-0.6,0.6-0.6s0.6,0.3,0.6,0.6v5.8zm-4.1-2c0,1,0.7,1.7,1.5,1.7s1.5-0.7,1.5-1.6c0-1-0.7-1.6-1.5-1.6-0.8-0.1-1.5,0.5-1.5,1.5z"/>
<path d="m190.5,137.6,0,0c0-1.5,1.2-2.7,2.7-2.7s2.7,1.2,2.7,2.6-1.2,2.7-2.7,2.7c-1.6,0-2.7-1.2-2.7-2.6zm4.3,0c0-0.9-0.6-1.7-1.6-1.7-0.9,0-1.5,0.7-1.5,1.6s0.6,1.6,1.6,1.6c0.9,0.1,1.5-0.7,1.5-1.5z"/>
<path d="m197.1,135.5c0-0.3,0.3-0.6,0.6-0.6s0.6,0.3,0.6,0.6v0.3c0.3-0.5,0.8-0.9,1.6-0.9,1.1,0,1.8,0.8,1.8,2v2.7c0,0.3-0.3,0.6-0.6,0.6s-0.6-0.3-0.6-0.6v-2.4c0-0.8-0.4-1.2-1.1-1.2s-1.1,0.5-1.1,1.3v2.3c0,0.3-0.3,0.6-0.6,0.6s-0.6-0.3-0.6-0.6v-4.1z"/>
<path d="m203.1,135.5c0-0.3,0.3-0.6,0.6-0.6s0.6,0.3,0.6,0.6v0.3c0.3-0.5,0.8-0.9,1.6-0.9,1.1,0,1.8,0.8,1.8,2v2.7c0,0.3-0.3,0.6-0.6,0.6s-0.6-0.3-0.6-0.6v-2.4c0-0.8-0.4-1.2-1.1-1.2s-1.1,0.5-1.1,1.3v2.3c0,0.3-0.3,0.6-0.6,0.6s-0.6-0.3-0.6-0.6v-4.1z"/>
<path d="m211.4,140.2c-1.5,0-2.6-1.1-2.6-2.6s1-2.7,2.5-2.7c1.6,0,2.4,1.3,2.4,2.5,0,0.3-0.3,0.6-0.6,0.6h-3.1c0.1,0.8,0.7,1.3,1.5,1.3,0.5,0,0.9-0.2,1.2-0.4,0.1-0.1,0.2-0.1,0.3-0.1,0.3,0,0.5,0.2,0.5,0.5,0,0.1-0.1,0.3-0.2,0.4-0.5,0.2-1.1,0.5-1.9,0.5zm1.2-3c-0.1-0.8-0.5-1.3-1.3-1.3-0.7,0-1.2,0.6-1.3,1.3h2.6zm-1.6-3c0-0.1,0-0.2,0.1-0.2l0.5-0.8c0.1-0.2,0.3-0.3,0.5-0.3,0.3,0,0.7,0.2,0.7,0.4,0,0.1-0.1,0.2-0.2,0.3l-0.6,0.6c-0.2,0.2-0.4,0.3-0.7,0.3-0.2-0.1-0.3-0.2-0.3-0.3z"/>
<path d="m217.3,140.2c-1.5,0-2.6-1.1-2.6-2.6s1-2.7,2.5-2.7c1.6,0,2.4,1.3,2.4,2.5,0,0.3-0.3,0.6-0.6,0.6h-3.2c0.1,0.8,0.7,1.3,1.5,1.3,0.5,0,0.9-0.2,1.2-0.4,0.1-0.1,0.2-0.1,0.3-0.1,0.3,0,0.5,0.2,0.5,0.5,0,0.1-0.1,0.3-0.2,0.4-0.5,0.2-1,0.5-1.8,0.5zm1.1-3c-0.1-0.8-0.5-1.3-1.3-1.3-0.7,0-1.2,0.6-1.3,1.3h2.6z"/>
<path d="m220.6,139.6c-0.1-0.1-0.2-0.2-0.2-0.4,0-0.3,0.2-0.5,0.5-0.5,0.1,0,0.2,0,0.3,0.1,0.5,0.3,1,0.5,1.5,0.5s0.8-0.2,0.8-0.6-0.5-0.5-1.1-0.7c-0.8-0.2-1.6-0.5-1.6-1.5s0.8-1.6,1.8-1.6c0.5,0,1.1,0.2,1.6,0.4,0.2,0.1,0.3,0.2,0.3,0.4,0,0.3-0.2,0.5-0.5,0.5-0.1,0-0.2,0-0.2-0.1-0.4-0.2-0.8-0.3-1.2-0.3-0.5,0-0.7,0.2-0.7,0.5,0,0.4,0.6,0.5,1.1,0.7,0.7,0.2,1.6,0.6,1.6,1.5,0,1.1-0.8,1.6-1.9,1.6-0.8,0.1-1.5-0.1-2.1-0.5z"/>
</g>
</svg>
