<?xml version="1.0" encoding="utf-8"?>
<!-- Generator: Adobe Illustrator 15.1.0, SVG Export Plug-In . SVG Version: 6.00 Build 0)  -->
<!DOCTYPE svg PUBLIC "-//W3C//DTD SVG 1.1//EN" "http://www.w3.org/Graphics/SVG/1.1/DTD/svg11.dtd">
<svg version="1.1" id="Layer_1" xmlns="http://www.w3.org/2000/svg" xmlns:xlink="http://www.w3.org/1999/xlink" x="0px" y="0px"
	 width="122.512px" height="99.572px" viewBox="0 0 122.512 99.572" enable-background="new 0 0 122.512 99.572"
	 xml:space="preserve">
<path d="M38.529,99.572c46.238,0,71.521-38.312,71.521-71.525c0-1.086-0.018-2.171-0.074-3.246
	c4.915-3.545,9.177-7.983,12.536-13.017c-4.501,1.997-9.353,3.347-14.43,3.957c5.188-3.115,9.166-8.039,11.055-13.904
	c-4.852,2.873-10.24,4.978-15.964,6.107C98.576,3.053,92.063,0,84.824,0C70.941,0,59.694,11.26,59.694,25.128
	c0,1.974,0.223,3.886,0.646,5.741C39.452,29.807,20.916,19.809,8.527,4.602c-2.151,3.711-3.401,8.023-3.401,12.627
	c0,8.72,4.433,16.416,11.188,20.928c-4.122-0.13-8.006-1.26-11.389-3.148c-0.006,0.113-0.006,0.215-0.006,0.321
	c0,12.181,8.669,22.342,20.158,24.643c-2.099,0.571-4.325,0.89-6.615,0.89c-1.622,0-3.194-0.168-4.729-0.464
	c3.206,9.999,12.485,17.264,23.479,17.468c-8.601,6.746-19.44,10.761-31.22,10.761c-2.023,0-4.021-0.118-5.993-0.352
	C11.12,95.41,24.33,99.572,38.529,99.572"/>
</svg>
